<svg height="512" viewBox="0 0 512 512" width="512" xmlns="http://www.w3.org/2000/svg"><path d="m328 256a72 72 0 0 0 -74.223-71.966c-38.392 1.156-69.913 33.818-69.776 72.227a71.484 71.484 0 0 0 15.747 44.608c14.852 18.531 24.252 40.804 24.252 64.546v18.585h64v-18.2c0-22.733 7.147-45.342 22.15-62.422a71.525 71.525 0 0 0 17.85-47.378z" fill="#fdb62f"/><path d="m212.384 320.256c7.294 13.944 11.616 29.202 11.616 45.159v18.585h64v-18.2c0-22.733 7.147-45.342 22.149-62.422a70.609 70.609 0 0 0 17.065-57.445 400.278 400.278 0 0 1 -114.83 74.323z" fill="#f29706"/><path d="m224 256 16-16 16 16 16-16 16 16a227.334 227.334 0 0 0 -24 101.666v26.334h-16v-26.334a227.334 227.334 0 0 0 -24-101.666z" fill="#fadbb7"/><path d="m469.547 470.676a226.139 226.139 0 0 0 -173.121-6.376 24 24 0 0 1 -32.426-22.476v-17.824h-16v17.824a40 40 0 0 0 54.043 37.453 210.107 210.107 0 0 1 160.8 5.926l21.8 10.063 6.7-14.532z" fill="#fdb62f"/><path d="m256 24c-128.13 0-232 103.87-232 232a230.845 230.845 0 0 0 31.106 115.986l27.71-16 27.8-16.052 27.691-15.988 27.693-15.986a104 104 0 1 1 180 0l27.691 15.988 27.691 15.987 27.8 16.053 27.71 16a230.845 230.845 0 0 0 31.108-115.988c0-128.13-103.87-232-232-232z" fill="#ff421d"/><path d="m256 24c-128.13 0-232 103.87-232 232a230.845 230.845 0 0 0 31.106 115.986l27.71-16a199 199 0 0 1 -26.816-99.986c0-110.457 89.543-200 200-200s200 89.543 200 200a199 199 0 0 1 -26.816 99.988l27.71 16a230.845 230.845 0 0 0 31.106-115.988c0-128.13-103.87-232-232-232z" fill="#ff421d"/><path d="m88 256a168 168 0 1 1 313.38 83.935l27.8 16.053a199 199 0 0 0 26.82-99.988c0-110.457-89.543-200-200-200s-200 89.543-200 200a199 199 0 0 0 26.816 99.988l27.8-16.052a167 167 0 0 1 -22.616-83.936z" fill="#f80"/><path d="m256 88a167.8 167.8 0 0 0 -145.38 251.936l27.691-15.988a136 136 0 1 1 235.378 0l27.691 15.987a167.8 167.8 0 0 0 -145.38-251.935z" fill="#fdb62f"/><path d="m392 256a136 136 0 1 0 -253.689 67.948l27.689-15.988a104 104 0 1 1 180 0l27.691 15.988a135.2 135.2 0 0 0 18.309-67.948z" fill="#6cbbc7"/><path d="m487.998 437.404.002 50.596-30.36-40.476-103.736-311.163 30.358-10.121z" fill="#763a02"/><path d="m482.938 422.225-30.358 10.12 5.06 15.179 30.36 40.476-.002-50.596z" fill="#fadbb7"/><path d="m384.262 126.24-5.062-15.179a16 16 0 0 0 -20.239-10.118 16 16 0 0 0 -10.118 20.239l5.06 15.179z" fill="#fadbb7"/><path d="m242.052 306.084a227.33 227.33 0 0 1 5.948 51.582v26.334h16v-26.334a227.251 227.251 0 0 1 11.6-71.387q-16.243 10.692-33.548 19.805z" fill="#fcc78a"/><path d="m224 392v8l16 32h32l16-32v-8z" fill="#6cbbc7"/><path d="m224 368h64v32h-64z" fill="#0071bc"/></svg>