<svg height="512pt" viewBox="0 0 512 512" width="512pt" xmlns="http://www.w3.org/2000/svg"><path d="m7.507812 7.5c58.929688 0 95.871094 28.453125 124.25 59.050781-8.339843 8.96875-15.929687 18.132813-23.113281 26.804688-5.535156 6.6875-10.859375 13.109375-16.152343 19.136719-23.113282-26.261719-45.914063-44.996094-84.984376-44.996094zm372.71875 59.050781c-8.324218 8.96875-15.914062 18.132813-23.097656 26.804688-5.535156 6.6875-10.859375 13.109375-16.152344 19.136719-23.128906 26.261718-45.929687 44.996093-84.984374 44.996093-39.058594 0-61.855469-18.730469-84.96875-44.996093-5.308594 6.03125-10.632813 12.449218-16.167969 19.136718-7.183594 8.671875-14.773438 17.835938-23.097657 26.804688 28.363282 30.597656 65.304688 59.050781 124.234376 59.050781 58.929687 0 95.871093-28.453125 124.25-59.050781 8.324218-8.96875 15.914062-18.132813 23.097656-26.804688 5.535156-6.6875 10.859375-13.109375 16.167968-19.136718 23.113282-26.261719 45.910157-44.996094 84.96875-44.996094v-59.996094c-58.929687 0-95.871093 28.453125-124.25 59.050781zm0 0" fill="#ff7956"/><path d="m419.507812 112.492188c23.113282 26.261718 45.910157 44.996093 84.96875 44.996093v59.996094c-58.929687 0-95.871093-28.453125-124.234374-59.050781 8.324218-8.96875 15.914062-18.132813 23.097656-26.800782 5.535156-6.691406 10.859375-13.113281 16.167968-19.140624zm-412.003906 104.996093c58.929688 0 95.871094-28.453125 124.25-59.050781 8.324219-8.96875 15.914063-18.132812 23.097656-26.804688 5.535157-6.6875 10.859376-13.109374 16.167969-19.136718 23.113281-26.261719 45.914063-44.996094 84.96875-44.996094l.003907-.003906c39.058593 0 61.855468 18.730468 84.984374 44.996094 5.292969-6.03125 10.617188-12.449219 16.152344-19.136719 7.183594-8.671875 14.773438-17.835938 23.097656-26.804688-28.363281-30.597656-65.304687-59.050781-124.234374-59.050781l-.003907.003906c-58.929687 0-95.871093 28.453125-124.25 59.050782-8.324219 8.96875-15.914062 18.132812-23.097656 26.804687-5.535156 6.6875-10.859375 13.109375-16.152344 19.136719-23.128906 26.261718-45.929687 44.996094-84.984375 44.996094zm0 0" fill="#57a4ff"/><path d="m34.714844 266.679688h66.5v181.457031h-66.5zm0 0" fill="#bddbff"/><path d="m34.714844 266.679688h66.5v112.992187h-66.5zm0 0" fill="#ffe477"/><path d="m41.183594 448.136719h53.566406v56.335937h-53.566406zm0 0" fill="#bddbff"/><path d="m34.714844 379.671875h66.5v28.226563h-66.5zm0 0" fill="#787680"/><path d="m222.75 266.679688h66.5v181.457031h-66.5zm0 0" fill="#bddbff"/><path d="m222.75 266.679688h66.5v112.992187h-66.5zm0 0" fill="#d7fc7e"/><path d="m229.214844 448.136719h53.566406v56.335937h-53.566406zm0 0" fill="#bddbff"/><path d="m222.75 379.671875h66.5v28.226563h-66.5zm0 0" fill="#787680"/><path d="m410.78125 266.679688h66.503906v181.457031h-66.503906zm0 0" fill="#bddbff"/><path d="m410.78125 266.679688h66.503906v112.992187h-66.503906zm0 0" fill="#ff7956"/><path d="m417.25 448.136719h53.566406v56.335937h-53.566406zm0 0" fill="#bddbff"/><path d="m410.78125 379.671875h66.503906v28.226563h-66.503906zm0 0" fill="#787680"/><path d="m161.753906 158.433594c8.328125-8.96875 15.917969-18.132813 23.101563-26.804688.695312-.84375 1.390625-1.683594 2.082031-2.519531-5.417969-5.0625-10.65625-10.644531-15.914062-16.617187-5.308594 6.03125-10.632813 12.449218-16.167969 19.140624-7.183594 8.667969-14.773438 17.832032-23.097657 26.800782 28.363282 30.597656 65.304688 59.050781 124.234376 59.050781 5.167968 0 10.164062-.21875 15-.636719-50.339844-4.371094-83.359376-30.5-109.238282-58.414062zm0 0" fill="#ff3f62"/><path d="m37.507812 67.496094v-57.339844c-9.332031-1.71875-19.304687-2.65625-30-2.65625v59.996094c39.070313 0 61.871094 18.730468 84.984376 44.996094 4.625-5.269532 9.277343-10.839844 14.074218-16.625-18.410156-17.191407-38.878906-28.371094-69.058594-28.371094zm0 0" fill="#ff3f62"/><path d="m37.503906 157.492188c39.054688 0 61.851563-18.734376 84.980469-44.996094 5.296875-6.03125 10.621094-12.449219 16.15625-19.136719 7.183594-8.671875 14.773437-17.835937 23.097656-26.804687 25.894531-27.917969 58.917969-54.050782 109.273438-58.414063-4.84375-.421875-9.847657-.640625-15.019531-.640625l-.003907.003906c-58.929687 0-95.871093 28.453125-124.25 59.050782-8.324219 8.972656-15.914062 18.132812-23.097656 26.804687-5.535156 6.6875-10.859375 13.109375-16.152344 19.136719-23.128906 26.261718-45.929687 44.996094-84.984375 44.996094v59.996093c10.695313 0 20.667969-.9375 29.996094-2.65625v-57.339843zm0 0" fill="#006df0"/><path d="m395.898438 174.070312c8.324218-8.96875 30.253906-33.769531 37.441406-42.441406.699218-.84375 1.390625-1.683594 2.085937-2.519531-5.421875-5.0625-10.660156-10.644531-15.917969-16.617187-5.308593 6.03125-10.632812 12.449218-16.167968 19.140624-7.183594 8.667969-14.773438 17.832032-23.097656 26.800782 0 0 7.4375 8.246094 15.65625 15.636718zm0 0" fill="#006df0"/><path d="m34.714844 266.679688h30v181.457031h-30zm0 0" fill="#57a4ff"/><path d="m34.714844 266.679688h30v112.992187h-30zm0 0" fill="#ffb655"/><path d="m41.183594 448.136719h29.996094v56.335937h-29.996094zm0 0" fill="#57a4ff"/><path d="m34.714844 379.671875h30v28.226563h-30zm0 0" fill="#57565c"/><path d="m222.75 266.679688h29.996094v181.457031h-29.996094zm0 0" fill="#57a4ff"/><path d="m222.75 266.679688h29.996094v112.992187h-29.996094zm0 0" fill="#55e072"/><path d="m229.214844 448.136719h30v56.335937h-30zm0 0" fill="#57a4ff"/><path d="m222.75 379.671875h29.996094v28.226563h-29.996094zm0 0" fill="#57565c"/><path d="m410.78125 266.679688h30v181.457031h-30zm0 0" fill="#57a4ff"/><path d="m410.78125 266.679688h30v112.992187h-30zm0 0" fill="#ff3f62"/><path d="m417.25 448.136719h29.996094v56.335937h-29.996094zm0 0" fill="#57a4ff"/><path d="m410.78125 379.671875h30v28.226563h-30zm0 0" fill="#57565c"/><path d="m108.71875 259.179688h-33.253906v-74.1875h-15v74.1875h-33.25v181.460937h-27.214844v14.996094h60.464844v28.101562h15v-28.101562h60.46875v-14.996094h-27.214844zm-66.503906 15h51.5v97.996093h-51.5zm51.503906 112.992187v13.226563h-51.503906v-13.226563zm-51.503906 53.46875v-25.246094h18.25v25.246094zm33.25 0v-25.246094h18.25v25.246094zm0 0"/><path d="m102.25 468.136719h-15v28.835937h-38.566406v-28.835937h-15v28.835937h-19.675782v15h107.914063v-15h-19.671875zm0 0"/><path d="m296.75 259.179688h-33.25v-74.1875h-15v74.1875h-33.25v181.460937h-27.214844v14.996094h60.464844v28.101562h15v-28.101562h60.464844v-14.996094h-27.214844zm-66.5 15h51.5v97.996093h-51.5zm51.5 112.992187v13.226563h-51.5v-13.226563zm-51.5 53.46875v-25.246094h18.25v25.246094zm33.25 0v-25.246094h18.25v25.246094zm0 0"/><path d="m290.28125 468.136719h-14.996094v28.835937h-38.570312v-28.835937h-15v28.835937h-19.671875v15h107.914062v-15h-19.675781zm0 0"/><path d="m484.785156 440.640625v-181.460937h-33.253906v-74.1875h-14.996094v74.1875h-33.253906v181.460937h-27.214844v14.996094h60.46875v28.101562h14.996094v-28.101562h60.46875v-14.996094zm-15-40.246094h-51.503906v-13.222656h51.503906zm0-126.214843v97.996093h-51.503906v-97.996093zm-51.503906 166.460937v-25.246094h18.253906v25.246094zm33.25 0v-25.246094h18.253906v25.246094zm0 0"/><path d="m478.316406 468.136719h-15v28.835937h-38.566406v-28.835937h-15v28.835937h-19.675781v15h107.914062v-15h-19.671875zm0 0"/><path d="m49.851562 219.78125-3.761718-14.523438c-9.855469 2.554688-20.277344 4.082032-31.078125 4.566407v-45.058594c10.140625-.621094 19.285156-2.515625 27.707031-5.507813v17.796876h14.996094v-24.644532c61.125-34.40625 87.199218-137.410156 198.285156-137.410156 40.296875 0 73.667969 13.613281 105.015625 42.84375l10.230469-10.972656c-34.296875-31.976563-70.917969-46.871094-115.246094-46.871094-114.011719 0-146.988281 99.261719-198.285156 134.871094v-44.652344c5.277344 3.640625 10.488281 7.980469 15.753906 13.070312l10.425781-10.785156c-14.59375-14.105468-35.421875-30.160156-68.882812-32.269531v-45.066406c36.976562 1.605469 68.136719 15.28125 97.523437 42.675781l10.230469-10.972656c-34.300781-31.972656-70.921875-46.86718775-115.253906-46.86718775h-7.496094v74.99609375c10.695313 0 25.453125-.648438 42.703125 6.828125v61.4375c-17.101562 7.351563-32.078125 6.726563-42.703125 6.726563v74.996093h7.496094c14.75 0 28.996093-1.753906 42.339843-5.207031zm0 0"/><path d="m205.976562 89.996094v44.902344c-5.339843-3.667969-10.613281-8.050782-15.941406-13.199219l-10.421875 10.789062c15.660157 15.132813 38.5 32.503907 76.386719 32.503907 19.609375 0 36.714844-4.480469 52.285156-13.695313 58.015625-34.328125 84.714844-131.4375 188.703125-136.128906v45.054687c-96.363281 5.917969-105.785156 134.964844-221.867187 148.660156l1.757812 14.894532c98.097656-11.574219 128.996094-100.222656 177.574219-133.78125v44.902344c-5.339844-3.667969-10.613281-8.046876-15.941406-13.199219l-10.425781 10.789062c7.082031 6.839844 15.628906 14.136719 26.367187 20.082031v25.492188h15v-18.761719c8.101563 2.832031 17.21875 4.808594 27.53125 5.460938v45.0625c-10.796875-.480469-21.222656-2.011719-31.078125-4.5625l-3.757812 14.519531c13.34375 3.457031 27.589843 5.210938 42.335937 5.210938h7.5v-74.996094c-10.394531 0-25.25.683594-42.53125-6.753906v-61.589844c16.773437-7.164063 31.269531-6.65625 42.53125-6.65625v-74.99218775h-7.5c-113.988281 0-147.175781 99.73437475-198.460937 134.95312475v-44.863281c5.335937 3.667969 10.605468 8.046875 15.929687 13.195312l10.425781-10.785156c-7.078125-6.839844-15.621094-14.136718-26.355468-20.082031v-25.414063h-15v18.683594c-8.097657-2.832031-17.210938-4.808594-27.523438-5.460937v-22.734375h-15v22.726562c-10.066406.617188-19.148438 2.492188-27.523438 5.449219v-18.707031h-15v25.519531c-45.242187 25.347656-68.679687 84.074219-121.914062 116.574219l7.816406 12.804687c52.269532-31.917969 77.367188-86.496093 114.097656-111.867187zm85.046876-8.25v61.542968c-8.523438 3.65625-17.535157 5.765626-27.523438 6.453126v-74.492188c9.886719.6875 18.914062 2.792969 27.523438 6.496094zm-42.523438-6.5v74.492187c-9.886719-.6875-18.914062-2.789062-27.523438-6.496093v-61.59375c8.25-3.519532 17.246094-5.699219 27.523438-6.402344zm0 0"/><path d="m389.230469 178.128906c10.25 9.550782 20.355469 17.316406 30.894531 23.746094l7.808594-12.808594c-9.660156-5.894531-18.976563-13.058594-28.480469-21.914062zm0 0"/><path d="m236.878906 208.890625c-32.121094-3.792969-59.417968-17.054687-85.898437-41.742187l-10.226563 10.96875c28.929688 26.972656 58.917969 41.484374 94.367188 45.671874zm0 0"/><g fill="#fff"><path d="m367.410156 146.535156-10.996094-10.203125c1.878907-2.023437 5.144532-5.75 9.703126-11.082031l11.394531 9.75c-4.753907 5.5625-8.058594 9.335938-10.101563 11.535156zm16.617188-19.191406-11.449219-9.695312c3.253906-3.839844 6.585937-7.792969 9.675781-11.464844l11.472656 9.664062c-3.097656 3.679688-6.4375 7.640625-9.699218 11.496094zm16.148437-19.148438-11.457031-9.679687c3.367188-3.988281 5.28125-6.230469 6.398438-7.5 10.949218-12.441406 26.015624-28.164063 45.488281-39.425781l7.507812 12.984375c-17.585937 10.167969-31.542969 24.769531-41.734375 36.351562-1.324218 1.503907-4.007812 4.675781-6.203125 7.269531zm0 0"/><path d="m87.148438 175.097656-8.648438-12.25c3.746094-2.648437 7.53125-5.605468 11.253906-8.800781l9.769532 11.378906c-4.082032 3.503907-8.242188 6.757813-12.375 9.671875zm20.074218-16.644531-10.347656-10.859375c3.285156-3.128906 6.628906-6.519531 10.226562-10.367188l10.957032 10.238282c-3.792969 4.0625-7.339844 7.65625-10.835938 10.988281zm17.695313-18.671875-11.335938-9.824219c5.90625-6.8125 14.230469-16.695312 20.917969-24.636719 5.65625-6.71875 10.128906-12.027343 12.132812-14.300781 11.683594-13.277343 21.546876-22.679687 31.972657-30.480469l8.988281 12.007813c-9.566406 7.160156-18.730469 15.914063-29.703125 28.382813-1.894531 2.152343-6.542969 7.667968-11.917969 14.054687-6.71875 7.976563-15.082031 17.902344-21.054687 24.796875zm0 0"/><path d="m83.34375 364.3125h-15v-26.132812h15zm0-36.132812h-15v-15h15zm0-24.996094h-15v-15h15zm0 0"/><path d="m271.378906 364.3125h-15v-26.132812h15zm0-36.132812h-15v-15h15zm0-24.996094h-15v-15h15zm0 0"/><path d="m459.410156 364.3125h-15v-26.132812h15zm0-36.132812h-15v-15h15zm0-24.996094h-15v-15h15zm0 0"/></g></svg>